<mxfile host="app.diagrams.net" modified="2023-05-25T14:33:48.273Z" agent="Mozilla/5.0 (X11; Linux x86_64) AppleWebKit/537.36 (KHTML, like Gecko) Chrome/112.0.0.0 Safari/537.36" etag="-BvDFd7_uemwYhQ0m6fw" version="21.2.9" type="github">
  <diagram id="R2lEEEUBdFMjLlhIrx00" name="Page-1">
    <mxGraphModel dx="2049" dy="1143" grid="1" gridSize="10" guides="1" tooltips="1" connect="1" arrows="1" fold="1" page="1" pageScale="1" pageWidth="850" pageHeight="1100" math="0" shadow="0" extFonts="Permanent Marker^https://fonts.googleapis.com/css?family=Permanent+Marker">
      <root>
        <mxCell id="0" />
        <mxCell id="1" parent="0" />
        <mxCell id="Ih3dna5R8XUJe7GTEhqn-2" value="EXTERNO" style="ellipse;whiteSpace=wrap;html=1;aspect=fixed;verticalAlign=top;" vertex="1" parent="1">
          <mxGeometry x="10" y="30" width="1040" height="1040" as="geometry" />
        </mxCell>
        <mxCell id="Ih3dna5R8XUJe7GTEhqn-1" value="PMDF" style="ellipse;whiteSpace=wrap;html=1;aspect=fixed;verticalAlign=top;" vertex="1" parent="1">
          <mxGeometry x="100" y="170" width="860" height="860" as="geometry" />
        </mxCell>
        <mxCell id="Ih3dna5R8XUJe7GTEhqn-4" value="SIPOM" style="ellipse;whiteSpace=wrap;html=1;aspect=fixed;verticalAlign=top;" vertex="1" parent="1">
          <mxGeometry x="175" y="390" width="130" height="130" as="geometry" />
        </mxCell>
        <mxCell id="Ih3dna5R8XUJe7GTEhqn-5" value="FIC" style="ellipse;whiteSpace=wrap;html=1;aspect=fixed;verticalAlign=middle;" vertex="1" parent="1">
          <mxGeometry x="410" y="70" width="80" height="80" as="geometry" />
        </mxCell>
        <mxCell id="Ih3dna5R8XUJe7GTEhqn-6" value="COMERCIO&lt;br&gt;ARMA" style="ellipse;whiteSpace=wrap;html=1;aspect=fixed;verticalAlign=middle;" vertex="1" parent="1">
          <mxGeometry x="580" y="70" width="80" height="80" as="geometry" />
        </mxCell>
        <mxCell id="Ih3dna5R8XUJe7GTEhqn-7" value="SEG.&lt;br&gt;ORGÃ‚NICA" style="ellipse;whiteSpace=wrap;html=1;aspect=fixed;verticalAlign=top;" vertex="1" parent="1">
          <mxGeometry x="440" y="210" width="150" height="150" as="geometry" />
        </mxCell>
        <mxCell id="Ih3dna5R8XUJe7GTEhqn-9" value="GUARDA" style="ellipse;whiteSpace=wrap;html=1;aspect=fixed;verticalAlign=middle;" vertex="1" parent="1">
          <mxGeometry x="475" y="260" width="80" height="80" as="geometry" />
        </mxCell>
        <mxCell id="Ih3dna5R8XUJe7GTEhqn-10" value="REL.&lt;br&gt;SVG" style="ellipse;whiteSpace=wrap;html=1;aspect=fixed;verticalAlign=middle;" vertex="1" parent="1">
          <mxGeometry x="200" y="420" width="80" height="80" as="geometry" />
        </mxCell>
        <mxCell id="Ih3dna5R8XUJe7GTEhqn-11" value="CI" style="ellipse;whiteSpace=wrap;html=1;aspect=fixed;verticalAlign=top;" vertex="1" parent="1">
          <mxGeometry x="320" y="400" width="510" height="510" as="geometry" />
        </mxCell>
      </root>
    </mxGraphModel>
  </diagram>
</mxfile>
